<svg xmlns="http://www.w3.org/2000/svg" width="60" height="60.495" viewBox="0 0 60 60.495">
  <path id="temp_formal-3231AF3132AF31_temp" d="M52.215,9.861A29.865,29.865,0,0,0,6.056,14.442a30.455,30.455,0,0,0,0,33.61,29.848,29.848,0,0,0,46.159,4.581,30.424,30.424,0,0,0,0-42.773ZM8.824,21.012a24.936,24.936,0,0,1,6.557-8.777,24.593,24.593,0,0,1,30.561-1.149c-7.364-.7-16.582,3.093-24.054,10.614A40.827,40.827,0,0,0,14.8,31.323,35.279,35.279,0,0,1,8.824,21.012ZM25.365,56.1a24.783,24.783,0,0,1-14-9.969A25.139,25.139,0,0,1,7.133,29.385c3.1,6.778,10.909,12.938,21.164,15.688a39.442,39.442,0,0,0,11.755,1.375A35.469,35.469,0,0,1,34.229,56.8a24.349,24.349,0,0,1-8.864-.728ZM44.033,27.35a41.026,41.026,0,0,0-4.664-11,34.735,34.735,0,0,1,11.8-.083,24.688,24.688,0,0,1,3.8,8.1,25.172,25.172,0,0,1-1.559,17.213A24.876,24.876,0,0,1,41.142,53.652C45.4,47.588,46.76,37.648,44.033,27.35Z" transform="translate(-1 -1)" fill="#292929"/>
</svg>
